HIERARCHY
ROOT Hips
{
	OFFSET 0.00000 0.00000 0.00000
	CHANNELS 6 Xposition Yposition Zposition Zrotation Yrotation Xrotation 
	JOINT LHipJoint
	{
		OFFSET 0 0 0
		CHANNELS 3 Zrotation Yrotation Xrotation
		JOINT LeftUpLeg
		{
			OFFSET 1.24777 -1.64261 0.71711
			CHANNELS 3 Zrotation Yrotation Xrotation
			JOINT LeftLeg
			{
				OFFSET 2.49329 -6.85026 0.00000
				CHANNELS 3 Zrotation Yrotation Xrotation
				JOINT LeftFoot
				{
					OFFSET 2.36770 -6.50520 0.00000
					CHANNELS 3 Zrotation Yrotation Xrotation
					JOINT LeftToeBase
					{
						OFFSET 0.14820 -0.40718 2.21395
						CHANNELS 3 Zrotation Yrotation Xrotation
						End Site
						{
							OFFSET 0.00000 -0.00000 1.13491
						}
					}
				}
			}
		}
	}
	JOINT RHipJoint
	{
		OFFSET 0 0 0
		CHANNELS 3 Zrotation Yrotation Xrotation
		JOINT RightUpLeg
		{
			OFFSET -1.18320 -1.64261 0.71711
			CHANNELS 3 Zrotation Yrotation Xrotation
			JOINT RightLeg
			{
				OFFSET -2.46559 -6.77417 0.00000
				CHANNELS 3 Zrotation Yrotation Xrotation
				JOINT RightFoot
				{
					OFFSET -2.38450 -6.55136 0.00000
					CHANNELS 3 Zrotation Yrotation Xrotation
					JOINT RightToeBase
					{
						OFFSET -0.17454 -0.47954 2.02925
						CHANNELS 3 Zrotation Yrotation Xrotation
						End Site
						{
							OFFSET -0.00000 -0.00000 1.05076
						}
					}
				}
			}
		}
	}
	JOINT LowerBack
	{
		OFFSET 0 0 0
		CHANNELS 3 Zrotation Yrotation Xrotation
		JOINT Spine
		{
			OFFSET -0.02305 1.98660 0.00319
			CHANNELS 3 Zrotation Yrotation Xrotation
			JOINT Spine1
			{
				OFFSET -0.00718 1.99033 -0.00533
				CHANNELS 3 Zrotation Yrotation Xrotation
				JOINT Neck
				{
					OFFSET 0 0 0
					CHANNELS 3 Zrotation Yrotation Xrotation
					JOINT Neck1
					{
						OFFSET 0.00095 1.61015 0.10698
						CHANNELS 3 Zrotation Yrotation Xrotation
						JOINT Head
						{
							OFFSET -0.01060 1.59924 0.01317
							CHANNELS 3 Zrotation Yrotation Xrotation
							End Site
							{
								OFFSET -0.00458 1.63304 -0.00592
							}
						}
					}
				}
				JOINT LeftShoulder
				{
					OFFSET 0 0 0
					CHANNELS 3 Zrotation Yrotation Xrotation
					JOINT LeftArm
					{
						OFFSET 3.05381 1.47088 -0.01697
						CHANNELS 3 Zrotation Yrotation Xrotation
						JOINT LeftForeArm
						{
							OFFSET 4.25106 -0.00000 0.00000
							CHANNELS 3 Zrotation Yrotation Xrotation
							JOINT LeftHand
							{
								OFFSET 3.27592 -0.00000 0.00000
								CHANNELS 3 Zrotation Yrotation Xrotation
								JOINT LeftFingerBase
								{
									OFFSET 0 0 0
									CHANNELS 3 Zrotation Yrotation Xrotation
									JOINT LeftHandIndex1
									{
										OFFSET 0.65781 -0.00000 0.00000
										CHANNELS 3 Zrotation Yrotation Xrotation
										End Site
										{
											OFFSET 0.53034 -0.00000 0.00000
										}
									}
								}
								JOINT LThumb
								{
									OFFSET 0 0 0
									CHANNELS 3 Zrotation Yrotation Xrotation
									End Site
									{
										OFFSET 0.53844 -0.00000 0.53844
									}
								}
							}
						}
					}
				}
				JOINT RightShoulder
				{
					OFFSET 0 0 0
					CHANNELS 3 Zrotation Yrotation Xrotation
					JOINT RightArm
					{
						OFFSET -2.83695 1.31619 -0.22674
						CHANNELS 3 Zrotation Yrotation Xrotation
						JOINT RightForeArm
						{
							OFFSET -4.46073 -0.00000 0.00000
							CHANNELS 3 Zrotation Yrotation Xrotation
							JOINT RightHand
							{
								OFFSET -3.44416 -0.00000 0.00000
								CHANNELS 3 Zrotation Yrotation Xrotation
								JOINT RightFingerBase
								{
									OFFSET 0 0 0
									CHANNELS 3 Zrotation Yrotation Xrotation
									JOINT RightHandIndex1
									{
										OFFSET -0.61651 -0.00000 0.00000
										CHANNELS 3 Zrotation Yrotation Xrotation
										End Site
										{
											OFFSET -0.49705 -0.00000 0.00000
										}
									}
								}
								JOINT RThumb
								{
									OFFSET 0 0 0
									CHANNELS 3 Zrotation Yrotation Xrotation
									End Site
									{
										OFFSET -0.50464 -0.00000 0.50464
									}
								}
							}
						}
					}
				}
			}
		}
	}
}
MOTION
Frames: 14
Frame Time: .0083333
26.8658 16.5916 11.1920 -182.3790 -1.3423 -169.8960 0.0000 0.0000 0.0000 -24.4567 2.3031 -23.6605 4.3507 12.6130 37.9364 1.4010 -15.5919 -22.3414 2.3042 9.4728 27.2859 0.0000 0.0000 0.0000 12.6641 9.9779 -47.2109 -6.9095 -15.2552 48.5313 0.2010 7.9367 2.3819 -0.0111 0.6809 -1.8713 -2.2514 -1.5743 3.3110 0.2771 -2.2190 1.6504 1.6164 -1.1476 -0.0663 3.2436 -0.5558 -10.0625 -2.6210 -0.7830 11.9513 -1.4011 -0.3678 5.2234 -0.0000 0.0000 0.0000 -75.7985 17.5660 56.6486 42.4939 -49.4800 -20.3153 -0.0000 -0.0000 1.4543 9.1984 24.8855 3.8983 -7.1250 0.0000 -0.0000 -21.2397 53.8672 -4.7972 -0.0000 0.0000 0.0000 63.9307 33.9322 52.1619 -59.0126 56.0410 -33.5208 0.0000 0.0000 30.5002 -37.4759 -22.4903 16.3447 7.1250 -0.0000 -0.0000 -9.6669 -57.2685 2.9235
26.8717 16.5962 11.2858 -182.4450 -1.3473 -169.9720 0.0000 0.0000 0.0000 -24.5123 2.2831 -24.0153 4.3651 12.6310 38.0023 1.3411 -15.6756 -21.9677 2.3304 9.5228 27.4449 0.0000 0.0000 0.0000 12.5583 9.9744 -47.5589 -7.3026 -15.5815 50.0098 0.1996 7.8936 2.7890 -0.0128 0.7309 -2.0086 -2.4241 -1.5411 3.4042 0.2275 -2.1834 1.6369 1.6645 -1.1300 -0.1292 3.1772 -0.6046 -10.0622 -2.4800 -0.8583 11.9489 -1.3517 -0.3981 5.2215 0.0000 0.0000 0.0000 -75.5917 16.6200 56.3456 44.9007 -50.7197 -22.1618 -0.0000 -0.0000 1.5125 10.4406 24.6817 4.4000 -7.1250 0.0000 -0.0000 -19.9142 53.9034 -4.4962 0.0000 0.0000 0.0000 65.6204 32.6471 51.9436 -59.2510 56.1070 -33.7186 0.0000 0.0000 31.5309 -40.1502 -22.4574 17.8612 7.1250 -0.0000 -0.0000 -12.9154 -57.9146 4.1275
26.8770 16.6023 11.3779 -182.4600 -1.3540 -170.0380 0.0000 0.0000 0.0000 -24.5147 2.2451 -24.3642 4.3778 12.6468 38.0605 1.2838 -15.7308 -21.5985 2.3582 9.5754 27.6124 0.0000 0.0000 0.0000 12.5135 9.9646 -47.8945 -7.7048 -15.8978 51.4923 0.1991 7.8921 3.2951 -0.0125 0.7217 -1.9833 -2.5118 -1.5084 3.4760 0.1856 -2.1451 1.6190 1.6721 -1.1103 -0.1878 3.1156 -0.6449 -10.0728 -2.3616 -0.9196 11.9605 -1.3092 -0.4226 5.2261 -0.0000 0.0000 0.0000 -75.3600 15.6821 56.0290 47.5955 -51.9785 -24.2667 -0.0000 -0.0000 1.4685 11.4674 24.5247 4.8132 -7.1250 0.0000 -0.0000 -18.8225 53.9433 -4.2541 -0.0000 0.0000 0.0000 67.2538 31.2684 51.6865 -59.5650 56.1929 -33.9794 0.0000 0.0000 32.4069 -42.4386 -22.4013 19.2112 7.1250 -0.0000 -0.0000 -15.7972 -58.4613 5.2853
26.8815 16.6103 11.4685 -182.4150 -1.3581 -170.1000 0.0000 0.0000 0.0000 -24.4546 2.1751 -24.6897 4.3864 12.6576 38.0998 1.2321 -15.7268 -21.2470 2.3852 9.6261 27.7742 0.0000 0.0000 0.0000 12.5330 9.9646 -48.1995 -8.1088 -16.1987 52.9536 0.1988 7.9308 3.8837 -0.0118 0.7007 -1.9255 -2.5180 -1.4780 3.5316 0.1633 -2.1065 1.6013 1.6536 -1.0900 -0.2395 3.0540 -0.6711 -10.0905 -2.2792 -0.9567 11.9773 -1.2763 -0.4378 5.2341 0.0000 -0.0000 0.0000 -75.1215 14.7555 55.6928 50.5903 -53.2308 -26.6463 -0.0000 -0.0000 1.3529 12.3522 24.4036 5.1699 -7.1250 0.0000 -0.0000 -17.8872 53.9908 -4.0528 0.0000 -0.0000 0.0000 68.7965 29.8347 51.4230 -59.9312 56.2916 -34.2838 0.0000 0.0000 33.0856 -44.4089 -22.3751 20.4502 7.1250 -0.0000 -0.0000 -18.3701 -58.9793 6.4115
26.8850 16.6199 11.5576 -182.3310 -1.3795 -170.1680 0.0000 0.0000 0.0000 -24.3510 2.0416 -24.9627 4.3887 12.6605 38.1105 1.1872 -15.6497 -20.9148 2.4105 9.6733 27.9252 0.0000 0.0000 0.0000 12.5950 9.9489 -48.4654 -8.5108 -16.4824 54.3824 0.1975 7.9949 4.5327 -0.0096 0.6336 -1.7413 -2.4650 -1.4613 3.5869 0.1594 -2.0837 1.5795 1.6213 -1.0771 -0.2958 2.9953 -0.6835 -10.0995 -2.2415 -0.9690 11.9949 -1.2560 -0.4436 5.2412 -0.0000 -0.0000 0.0000 -74.8880 13.8620 55.3273 53.9014 -54.4527 -29.3201 -0.0000 -0.0000 1.2233 13.0367 24.3697 5.4575 -7.1250 0.0000 -0.0000 -17.1932 54.0849 -3.9281 -0.0000 -0.0000 0.0000 70.2390 28.3678 51.1946 -60.3187 56.3943 -34.6064 0.0000 0.0000 33.5679 -46.1125 -22.4108 21.6207 7.1250 -0.0000 -0.0000 -20.6896 -59.5158 7.5309
26.8877 16.6311 11.6451 -182.2150 -1.4201 -170.2520 0.0000 0.0000 0.0000 -24.2081 1.8393 -25.1645 4.3836 12.6541 38.0869 1.1494 -15.4938 -20.6045 2.4329 9.7148 28.0581 0.0000 0.0000 0.0000 12.6931 9.9176 -48.6721 -8.9079 -16.7481 55.7712 0.1937 8.0628 5.2229 -0.0076 0.5614 -1.5428 -2.3738 -1.4617 3.6400 0.1779 -2.0823 1.5670 1.5911 -1.0752 -0.3410 2.9341 -0.6765 -10.1041 -2.2384 -0.9501 12.0027 -1.2438 -0.4368 5.2453 0.0000 -0.0000 0.0000 -74.6679 12.9861 54.9263 57.5306 -55.6152 -32.2946 -0.0000 -0.0000 1.1034 13.7127 24.3459 5.7441 -7.1250 0.0000 -0.0000 -16.5106 54.1877 -3.8073 0.0000 -0.0000 0.0000 71.5770 26.9135 51.0168 -60.6825 56.4891 -34.9095 0.0000 0.0000 33.8715 -47.5784 -22.4929 22.7166 7.1250 -0.0000 -0.0000 -22.7784 -60.0545 8.6340
26.8899 16.6436 11.7311 -182.0980 -1.4785 -170.3530 0.0000 0.0000 0.0000 -24.0604 1.5750 -25.2933 4.3695 12.6365 38.0227 1.1168 -15.2743 -20.3069 2.4558 9.7571 28.1935 0.0000 0.0000 0.0000 12.7914 9.8624 -48.8232 -9.3003 -16.9971 57.1228 0.1861 8.1128 5.9284 -0.0051 0.4600 -1.2640 -2.2757 -1.4765 3.6982 0.2059 -2.0999 1.5611 1.5676 -1.0831 -0.3813 2.8800 -0.6585 -10.1161 -2.2692 -0.9129 12.0115 -1.2419 -0.4231 5.2511 -0.0000 -0.0000 0.0000 -74.4488 12.1199 54.5103 61.4522 -56.6846 -35.5520 -0.0000 -0.0000 1.0469 14.3628 24.3287 6.0219 -7.1250 0.0000 -0.0000 -15.8543 54.2927 -3.6910 -0.0000 -0.0000 0.0000 72.8119 25.4872 50.8948 -60.9754 56.5643 -35.1539 0.0000 0.0000 34.0576 -48.8160 -22.6131 23.7238 7.1250 -0.0000 -0.0000 -24.6293 -60.5812 9.6974
26.8927 16.6567 11.8157 -181.9880 -1.5334 -170.4610 0.0000 0.0000 0.0000 -23.9143 1.2574 -25.3649 4.3468 12.6081 37.9185 1.0903 -14.9800 -20.0274 2.4719 9.7866 28.2883 0.0000 0.0000 0.0000 12.8791 9.8155 -48.9237 -9.6878 -17.2305 58.4397 0.1732 8.1194 6.6333 -0.0034 0.3748 -1.0298 -2.1983 -1.4973 3.7548 0.2401 -2.1261 1.5577 1.5621 -1.0956 -0.4168 2.8307 -0.6336 -10.1319 -2.3149 -0.8653 12.0228 -1.2448 -0.4052 5.2585 0.0000 -0.0000 0.0000 -74.2204 11.2553 54.0875 65.6348 -57.6335 -39.0668 -0.0000 -0.0000 1.0826 15.1072 24.2543 6.3279 -7.1250 0.0000 -0.0000 -15.0728 54.3605 -3.5277 0.0000 -0.0000 0.0000 73.9674 24.0821 50.8131 -61.1825 56.6169 -35.3268 0.0000 0.0000 34.1915 -49.8368 -22.7422 24.6106 7.1250 -0.0000 -0.0000 -26.2274 -61.0595 10.6770
26.8960 16.6703 11.8987 -181.9040 -1.5852 -170.5740 0.0000 0.0000 0.0000 -23.7945 0.9132 -25.3903 4.3161 12.5696 37.7779 1.0667 -14.6462 -19.7551 2.4845 9.8096 28.3624 0.0000 0.0000 0.0000 12.9359 9.7631 -48.9758 -10.0717 -17.4499 59.7276 0.1543 8.0737 7.3385 -0.0020 0.2870 -0.7885 -2.1580 -1.5232 3.8009 0.2704 -2.1603 1.5582 1.5734 -1.1124 -0.4409 2.7850 -0.6063 -10.1603 -2.3596 -0.8151 12.0452 -1.2479 -0.3857 5.2716 -0.0000 -0.0000 0.0000 -73.9770 10.3735 53.6602 70.0272 -58.4377 -42.7938 -0.0000 -0.0000 1.2067 15.8931 24.1390 6.6416 -7.1250 0.0000 -0.0000 -14.2277 54.3963 -3.3361 -0.0000 -0.0000 0.0000 75.0588 22.7001 50.7578 -61.2855 56.6429 -35.4128 0.0000 0.0000 34.3222 -50.6603 -22.8470 25.3471 7.1250 -0.0000 -0.0000 -27.5599 -61.4497 11.5231
26.9005 16.6842 11.9803 -181.8370 -1.6149 -170.6800 0.0000 0.0000 0.0000 -23.6888 0.5591 -25.3981 4.2800 12.5240 37.6119 1.0453 -14.2788 -19.4882 2.4927 9.8246 28.4106 0.0000 0.0000 0.0000 12.9719 9.7314 -48.9867 -10.4517 -17.6562 60.9877 0.1270 7.9458 8.0537 -0.0007 0.1683 -0.4625 -2.1504 -1.5450 3.8334 0.2941 -2.1898 1.5546 1.5957 -1.1270 -0.4608 2.7435 -0.5804 -10.1923 -2.3862 -0.7695 12.0794 -1.2465 -0.3669 5.2889 -0.0000 0.0000 0.0000 -73.7061 9.4690 53.2376 74.5620 -59.0800 -46.6716 -0.0000 -0.0000 1.4276 16.7805 23.9093 6.9678 -7.1250 0.0000 -0.0000 -13.2244 54.3377 -3.0753 -0.0000 0.0000 0.0000 76.1049 21.3223 50.7095 -61.2800 56.6415 -35.4082 0.0000 0.0000 34.4890 -51.3116 -22.8970 25.9126 7.1250 -0.0000 -0.0000 -28.6252 -61.7202 12.1938
26.9060 16.6979 12.0608 -181.7870 -1.6200 -170.7710 0.0000 0.0000 0.0000 -23.6004 0.2065 -25.4092 4.2408 12.4741 37.4306 1.0246 -13.8903 -19.2205 2.4980 9.8343 28.4417 0.0000 0.0000 0.0000 12.9838 9.7227 -48.9656 -10.8285 -17.8501 62.2233 0.0913 7.7428 8.7831 -0.0000 0.0090 -0.0248 -2.1731 -1.5620 3.8417 0.3075 -2.2131 1.5453 1.6235 -1.1383 -0.4725 2.7101 -0.5563 -10.2297 -2.3917 -0.7302 12.1255 -1.2404 -0.3492 5.3107 -0.0000 0.0000 0.0000 -73.4046 8.5305 52.8165 79.1667 -59.5519 -50.6322 -0.0000 -0.0000 1.7330 17.6527 23.6255 7.2679 -7.1250 0.0000 -0.0000 -12.2135 54.2208 -2.7995 -0.0000 0.0000 0.0000 77.1114 19.9405 50.6581 -61.1652 56.6125 -35.3123 0.0000 0.0000 34.7060 -51.8356 -22.8887 26.3303 7.1250 -0.0000 -0.0000 -29.4704 -61.8791 12.6999
26.9129 16.7111 12.1404 -181.7460 -1.5938 -170.8330 0.0000 0.0000 0.0000 -23.5187 -0.1261 -25.4551 4.2017 12.4241 37.2492 1.0031 -13.5028 -18.9470 2.5031 9.8435 28.4715 0.0000 0.0000 0.0000 12.9793 9.7557 -48.9196 -11.2006 -18.0319 63.4314 0.0475 7.4737 9.5277 -0.0005 -0.1461 0.4014 -2.2175 -1.5703 3.8174 0.3115 -2.2243 1.5269 1.6524 -1.1435 -0.4755 2.6807 -0.5357 -10.2749 -2.3695 -0.6997 12.1886 -1.2269 -0.3336 5.3391 0.0000 -0.0000 0.0000 -73.0671 7.5563 52.3973 83.7816 -59.8534 -54.6173 -0.0000 -0.0000 2.1081 18.4738 23.3128 7.5317 -7.1250 0.0000 -0.0000 -11.2450 54.0628 -2.5295 0.0000 -0.0000 0.0000 78.0814 18.5463 50.5926 -60.9426 56.5559 -35.1265 0.0000 0.0000 34.9730 -52.3019 -22.8408 26.6690 7.1250 -0.0000 -0.0000 -30.2079 -61.9719 13.1164
26.9207 16.7237 12.2191 -181.7190 -1.5551 -170.8740 0.0000 0.0000 0.0000 -23.4498 -0.4365 -25.5359 4.1650 12.3768 37.0784 0.9792 -13.1393 -18.6615 2.5105 9.8569 28.5145 0.0000 0.0000 0.0000 12.9555 9.8027 -48.8434 -11.5675 -18.2018 64.6112 -0.0027 7.1730 10.2915 -0.0026 -0.3273 0.8993 -2.2792 -1.5759 3.7668 0.3046 -2.2315 1.5006 1.6789 -1.1464 -0.4717 2.6568 -0.5182 -10.3286 -2.3265 -0.6769 12.2661 -1.2086 -0.3199 5.3732 0.0000 -0.0000 0.0000 -72.6967 6.5464 51.9751 88.3475 -59.9897 -58.5690 -0.0000 -0.0000 2.5402 19.1981 23.0096 7.7507 -7.1250 0.0000 -0.0000 -10.3834 53.8934 -2.2892 0.0000 -0.0000 0.0000 79.0119 17.1374 50.5174 -60.6044 56.4689 -34.8445 0.0000 0.0000 35.2482 -52.7723 -22.7322 26.9571 7.1250 -0.0000 -0.0000 -30.9185 -61.9907 13.4715
26.9298 16.7355 12.2973 -181.6880 -1.4978 -170.8910 0.0000 0.0000 0.0000 -23.3701 -0.7179 -25.6652 4.1328 12.3351 36.9280 0.9526 -12.8063 -18.3616 2.5231 9.8798 28.5884 0.0000 0.0000 0.0000 12.9330 9.8830 -48.7320 -11.9262 -18.3593 65.7547 -0.0592 6.8499 11.0815 -0.0066 -0.5251 1.4428 -2.3459 -1.5754 3.6950 0.2950 -2.2296 1.4655 1.7046 -1.1445 -0.4655 2.6367 -0.5008 -10.3846 -2.2682 -0.6570 12.3481 -1.1863 -0.3063 5.4091 0.0000 0.0000 0.0000 -72.2978 5.5024 51.5459 92.8131 -59.9701 -62.4360 -0.0000 -0.0000 3.0097 19.8327 22.7237 7.9315 -7.1250 0.0000 -0.0000 -9.6242 53.7223 -2.0789 0.0000 0.0000 0.0000 79.8885 15.7174 50.4332 -60.1456 56.3486 -34.4623 0.0000 0.0000 35.5033 -53.2899 -22.5897 27.2557 7.1250 -0.0000 -0.0000 -31.6908 -61.9846 13.8409
